<svg width="250" height="250" xmlns="http://www.w3.org/2000/svg" xmlns:xlink="http://www.w3.org/1999/xlink" xml:space="preserve" overflow="hidden"><defs><clipPath id="clip0"><rect x="592" y="312" width="250" height="250"/></clipPath></defs><g clip-path="url(#clip0)" transform="translate(-592 -312)"><path d="M768.042 371.896C779.5 371.896 788.875 362.521 788.875 351.062 788.875 339.604 779.5 330.229 768.042 330.229 756.583 330.229 747.208 339.604 747.208 351.062 747.208 362.521 756.323 371.896 768.042 371.896Z"/><path d="M662.052 491.948C662.052 492.208 662.312 492.208 662.312 492.208 662.312 492.208 662.312 492.208 662.573 492.208L669.604 479.448 687.573 444.812 686.01 443.51C683.406 441.167 681.583 438.042 680.802 434.656L675.594 406.01C674.292 399.24 677.677 392.729 683.667 389.344L715.177 372.417C715.438 372.417 715.438 372.156 715.438 372.156L715.177 371.896 715.177 371.896C706.062 372.677 697.208 374.5 688.354 377.365L597.208 405.229C597.208 447.677 619.083 450.281 638.094 458.615 653.458 465.385 659.708 479.188 662.052 491.948Z"/><path d="M750.854 489.344C750.854 488.823 750.854 488.562 750.854 488.042 750.854 485.958 750.073 484.396 748.771 482.573L748.51 482.312 732.625 455.229 737.052 450.542C734.448 449.76 731.583 448.719 728.458 447.417L727.677 448.719C726.896 450.021 725.333 450.281 724.031 449.76L715.438 444.812C714.135 444.031 713.875 442.469 714.396 441.167L714.917 440.385C711.792 438.562 708.927 436.479 706.062 434.135 706.323 432.833 706.323 431.271 706.062 429.969L705.021 422.417C709.188 426.583 713.615 430.49 718.562 433.615L718.823 433.094C719.604 431.792 721.167 431.531 722.469 432.052L731.062 437C732.104 437.781 732.625 439.083 732.104 440.385 735.49 441.948 739.135 442.99 742.781 444.031L767.26 417.99 833.406 358.875C837.573 354.969 838.094 348.458 834.188 344.292 830.281 340.125 823.771 339.604 819.604 343.51L777.938 380.49C763.354 374.5 747.729 371.375 731.844 371.375 729.5 371.375 727.156 372.156 725.073 373.198L686.01 394.031C682.104 396.115 679.76 400.542 680.542 404.969L685.75 433.615C686.531 438.042 690.177 441.427 694.604 441.948L674.031 481.792 647.99 528.146C645.125 533.094 646.688 539.604 651.896 542.469 657.104 545.333 663.354 543.771 666.219 538.562L666.219 538.302 705.542 468.25 726.635 489.604 703.198 521.635C699.812 526.323 701.115 532.833 705.802 536.219 710.49 539.344 716.74 538.302 720.125 533.875L748.771 494.552C750.073 493.25 750.594 491.427 750.854 489.344ZM705.021 421.896 702.417 408.875 715.698 401.844 705.021 421.896Z"/></g></svg>