<svg version="1.1" viewBox="0 0 1000 400" xmlns="http://www.w3.org/2000/svg" xmlns:xlink="http://www.w3.org/1999/xlink">
 <path d="m468.74 191.78c-1.9763-0.79628-3.2365-2.9638-3.2365-5.5668 0-2.9332 19.188-55.586 27.351-75.053 3.9785-9.4875 10.943-27.34 15.477-39.671 9.6412-26.225 10.19-27.592 11.389-28.353 2.5151-1.5984 5.7834 0.40909 5.7834 3.5523 0 0.98746-2.022 7.2663-4.4934 13.953-2.4714 6.6867-4.3897 12.261-4.263 12.388 0.12669 0.12668 1.2405-0.15096 2.4751-0.61698 5.0408-1.9027 11.513 1.5111 13.136 6.9287 1.1434 3.8162 1e-3 7.8431-3.0534 10.77-4.3976 4.2132-12.787 3.2107-15.68-1.8737-0.68594-1.2057-1.4469-2.1944-1.691-2.197-0.48373-0.0052-2.4363 6.028-2.0457 6.3209 0.856 0.64206 11.445 4.1743 12.514 4.1743 0.72256 0 1.9226 0.44524 2.6669 0.98942 1.1796 0.8625 1.3382 2.0806 1.2368 9.4956l-0.11631 8.5062 5.2956-4.9956c3.4044-3.2115 5.9187-4.9956 7.0403-4.9956 2.3914 0 4.5175 2.4928 3.9722 4.6573-0.65254 2.5901-18.845 19.343-21.006 19.343-3.3 0-4.5137-2.386-4.0019-7.8672 0.25078-2.6855 0.30477-4.8828 0.11998-4.8828-0.1848 0-1.394 2.0958-2.687 4.6574-1.6576 3.2838-2.0756 4.7492-1.417 4.9688 1.9791 0.65969 3.7465 3.2219 3.7465 5.4312 0 2.7899-13.27 26.21-16.689 29.455-1.8382 1.7444-2.682 2.0512-4.5916 1.6693-1.2867-0.25734-2.965-1.0934-3.7296-1.858-2.5849-2.5849-1.7757-5.783 3.9063-15.439 5.2403-8.9054 5.2747-8.9992 3.6345-9.9109-0.91075-0.50622-2.0277-0.93236-2.4822-0.94697-0.45444-0.0146-4.9695 11.533-10.033 25.661-10.807 30.15-10.787 30.104-13.212 31.209-2.1723 0.98978-3.0643 1.0063-5.317 0.0987zm-2.0827-54.859c-4.5217-0.79921-8.3605-1.5924-8.5307-1.7626-0.17024-0.17023 3.7363-4.6269 8.6811-9.9038 8.3916-8.955 18.45-20.03 27.785-30.593l3.9643-4.4858-7.2054 17.617c-3.963 9.6895-8.398 20.57-9.8556 24.18-3.0741 7.6125-1.9278 7.2303-14.839 4.9482z" fill="#3974d3" stroke-width=".75"/>
 <image id="a" x="260" y="-40" width="480" height="480" display="none" xlink:href=""/>
 <image id="b" x="-12" y="-184" width="0" height="0" display="none" xlink:href=""/>
 <g id="c" transform="translate(-12 -184)" fill="#6d10cd" stroke="#6d10cd" stroke-miterlimit="2" stroke-width="0" style="font-variant-ligatures:none">
  <path transform="matrix(.75 0 0 .75 75.436 536.34)" d="m259.48-20.766v-1.9844h8.1719v1.9844l-2.5469 0.4375v7.8594h11.031v-7.8594l-2.5469-0.4375v-1.9844h8.1719v1.9844l-2.5469 0.4375v17.922l2.5469 0.4375v1.9688h-8.1719v-1.9688l2.5469-0.4375v-7.6406h-11.031v7.6406l2.5469 0.4375v1.9688h-8.1719v-1.9688l2.5469-0.4375v-17.922z" style="font-variant-ligatures:none"/>
  <path transform="matrix(.75 0 0 .75 79.186 536.34)" d="m292.05 0.32812q-3.5312 0-5.625-2.3438-2.0781-2.3594-2.0781-6.1094v-0.6875q0-3.6094 2.1406-6 2.1562-2.4062 5.0938-2.4062 3.4062 0 5.1562 2.0625 1.7656 2.0625 1.7656 5.5v1.9219h-10.969l-0.0469 0.078125q0.0469 2.4375 1.2344 4.0156 1.1875 1.5625 3.3281 1.5625 1.5625 0 2.7344-0.4375 1.1875-0.45312 2.0469-1.2344l1.2031 2q-0.90625 0.875-2.4062 1.4844-1.4844 0.59375-3.5781 0.59375zm-0.46875-15.125q-1.5469 0-2.6406 1.3125-1.0938 1.2969-1.3438 3.2656l0.0312 0.07813h7.7969v-0.40625q0-1.8125-0.96875-3.0312t-2.875-1.2188z" style="font-variant-ligatures:none"/>
  <path transform="matrix(.75 0 0 .75 82.936 536.34)" d="m301.52-14.922v-1.9844h5.2969l0.29687 2.4531q0.71875-1.2969 1.7656-2.0312 1.0625-0.73438 2.4219-0.73438 0.35938 0 0.73438 0.0625 0.39062 0.04687 0.59375 0.10938l-0.40625 2.8594-1.75-0.09375q-1.2188 0-2.0469 0.57812-0.82812 0.5625-1.2812 1.5938v9.7031l2.5469 0.4375v1.9688h-8.1719v-1.9688l2.5469-0.4375v-12.078z" style="font-variant-ligatures:none"/>
  <path transform="matrix(.75 0 0 .75 86.686 536.34)" d="m314.47-8.6094q0-3.75 2.0312-6.1719 2.0312-2.4375 5.5156-2.4375 3.5 0 5.5312 2.4219 2.0469 2.4219 2.0469 6.1875v0.34375q0 3.7812-2.0312 6.1875t-5.5156 2.4062q-3.5156 0-5.5469-2.4062-2.0312-2.4219-2.0312-6.1875zm3.0781 0.34375q0 2.6875 1.125 4.4375 1.1406 1.75 3.375 1.75 2.1875 0 3.3281-1.75 1.1406-1.75 1.1406-4.4375v-0.34375q0-2.6562-1.1406-4.4219-1.1406-1.7656-3.3594-1.7656t-3.3438 1.7656-1.125 4.4219z" style="font-variant-ligatures:none"/>
  <path transform="matrix(.75 0 0 .75 90.436 536.34)" d="m340.11 0.32812q-3.5312 0-5.625-2.3438-2.0781-2.3594-2.0781-6.1094v-0.6875q0-3.6094 2.1406-6 2.1562-2.4062 5.0938-2.4062 3.4062 0 5.1562 2.0625 1.7656 2.0625 1.7656 5.5v1.9219h-10.969l-0.0469 0.078125q0.0469 2.4375 1.2344 4.0156 1.1875 1.5625 3.3281 1.5625 1.5625 0 2.7344-0.4375 1.1875-0.45312 2.0469-1.2344l1.2031 2q-0.90625 0.875-2.4062 1.4844-1.4844 0.59375-3.5781 0.59375zm-0.46875-15.125q-1.5469 0-2.6406 1.3125-1.0938 1.2969-1.3438 3.2656l0.0312 0.07813h7.7969v-0.40625q0-1.8125-0.96875-3.0312t-2.875-1.2188z" style="font-variant-ligatures:none"/>
  <path transform="matrix(.75 0 0 .75 94.186 536.34)" d="m362.52-11.594h-2.3125l-0.5-2.0312q-0.5625-0.53125-1.4219-0.84375-0.84375-0.32812-1.9219-0.32812-1.6406 0-2.4375 0.71875-0.79687 0.71875-0.79687 1.7344 0 1 0.70312 1.5781 0.70313 0.57812 2.8594 1.0312 3.2031 0.6875 4.7656 1.875 1.5625 1.1719 1.5625 3.1562 0 2.25-1.8281 3.6406-1.8125 1.3906-4.75 1.3906-1.9219 0-3.4531-0.4375-1.5312-0.45312-2.7344-1.2969l-0.0156-3.8594h2.3125l0.5781 2.2656q0.53125 0.48438 1.4375 0.70312 0.92187 0.21875 1.875 0.21875 1.6406 0 2.5625-0.65625 0.9375-0.67188 0.9375-1.75 0-1.0156-0.78125-1.6719-0.76563-0.65625-2.9219-1.1406-3.0781-0.67188-4.6406-1.8281t-1.5625-3.125q0-2.0625 1.75-3.5156 1.7656-1.4531 4.5781-1.4531 1.9219 0 3.4531 0.5t2.5469 1.3906z" style="font-variant-ligatures:none"/>
  <path transform="matrix(.75 0 0 .75 97.936 536.34)" d="m384.86 0q-0.14062-0.6875-0.21875-1.2344-0.0781-0.54688-0.10937-1.0938-0.89063 1.1406-2.2344 1.9062-1.3281 0.75-2.8438 0.75-2.6406 0-4.0156-1.2812-1.375-1.2969-1.375-3.6406 0-2.4062 1.9375-3.7031 1.9531-1.3125 5.3438-1.3125h3.1719v-1.9688q0-1.4844-0.9375-2.3438-0.9375-0.875-2.6094-0.875-1.1562 0-2.0469 0.29688-0.875 0.29688-1.4219 0.8125l-0.32813 1.7812h-2.375v-3.2812q1.1562-0.92188 2.7969-1.4688 1.6406-0.5625 3.5625-0.5625 2.875 0 4.6562 1.4688t1.7812 4.2031v8.1406q0 0.32812 0 0.64062 0.0156 0.3125 0.0469 0.625l1.25 0.17188v1.9688zm-4.9531-2.25q1.5312 0 2.7969-0.73438 1.2656-0.73438 1.8125-1.7656v-2.7812h-3.2812q-1.8906 0-3 0.875-1.0938 0.875-1.0938 2.125 0 1.1094 0.6875 1.7031 0.6875 0.57812 2.0781 0.57812z" style="font-variant-ligatures:none"/>
  <path transform="matrix(.75 0 0 .75 101.69 536.34)" d="m391.45-14.922v-1.9844h5.2969l0.29687 2.4531q0.71875-1.2969 1.7656-2.0312 1.0625-0.73438 2.4219-0.73438 0.35938 0 0.73438 0.0625 0.39062 0.04687 0.59375 0.10938l-0.40625 2.8594-1.75-0.09375q-1.2188 0-2.0469 0.57812-0.82812 0.5625-1.2812 1.5938v9.7031l2.5469 0.4375v1.9688h-8.1719v-1.9688l2.5469-0.4375v-12.078z" style="font-variant-ligatures:none"/>
  <path transform="matrix(.75 0 0 .75 105.44 536.34)" d="m412.11 0.32812q-3.5312 0-5.625-2.3438-2.0781-2.3594-2.0781-6.1094v-0.6875q0-3.6094 2.1406-6 2.1562-2.4062 5.0938-2.4062 3.4062 0 5.1562 2.0625 1.7656 2.0625 1.7656 5.5v1.9219h-10.969l-0.0469 0.078125q0.0469 2.4375 1.2344 4.0156 1.1875 1.5625 3.3281 1.5625 1.5625 0 2.7344-0.4375 1.1875-0.45312 2.0469-1.2344l1.2031 2q-0.90625 0.875-2.4062 1.4844-1.4844 0.59375-3.5781 0.59375zm-0.46875-15.125q-1.5469 0-2.6406 1.3125-1.0938 1.2969-1.3438 3.2656l0.0312 0.07813h7.7969v-0.40625q0-1.8125-0.96875-3.0312t-2.875-1.2188z" style="font-variant-ligatures:none"/>
  <path transform="matrix(.75 0 0 .75 109.19 536.34)" d="m429.53-8.1406q0-4.0781 1.7812-6.5781t4.9219-2.5q1.5938 0 2.7969 0.625 1.2031 0.625 2.0156 1.8125l0.28125-2.125h2.5938v16.688q0 3.2812-1.8281 5.1562-1.8281 1.8906-5.2031 1.8906-1.2188 0-2.6406-0.34375-1.4219-0.32812-2.5-0.90625l0.79687-2.3906q0.85938 0.45312 2.0312 0.75 1.1719 0.29688 2.2812 0.29688 2.0625 0 3.0156-1.1562 0.96875-1.1562 0.96875-3.2969v-1.6094q-0.82813 1.0625-1.9844 1.6094t-2.6562 0.54688q-3.1094 0-4.8906-2.25t-1.7812-5.8906zm3.0781 0.32812q0 2.5469 1.0781 4.0938 1.0781 1.5469 3.2812 1.5469 1.3906 0 2.3281-0.625 0.9375-0.64062 1.5469-1.7969v-7.7812q-0.59375-1.0781-1.5469-1.7031-0.95312-0.64062-2.2969-0.64062-2.2031 0-3.2969 1.8438t-1.0938 4.7344z" style="font-variant-ligatures:none"/>
  <path transform="matrix(.75 0 0 .75 112.94 536.34)" d="m455.36 0.32812q-3.5312 0-5.625-2.3438-2.0781-2.3594-2.0781-6.1094v-0.6875q0-3.6094 2.1406-6 2.1562-2.4062 5.0938-2.4062 3.4062 0 5.1562 2.0625 1.7656 2.0625 1.7656 5.5v1.9219h-10.969l-0.0469 0.078125q0.0469 2.4375 1.2344 4.0156 1.1875 1.5625 3.3281 1.5625 1.5625 0 2.7344-0.4375 1.1875-0.45312 2.0469-1.2344l1.2031 2q-0.90625 0.875-2.4062 1.4844-1.4844 0.59375-3.5781 0.59375zm-0.46875-15.125q-1.5469 0-2.6406 1.3125-1.0938 1.2969-1.3438 3.2656l0.0312 0.07813h7.7969v-0.40625q0-1.8125-0.96875-3.0312t-2.875-1.2188z" style="font-variant-ligatures:none"/>
  <path transform="matrix(.75 0 0 .75 116.69 536.34)" d="m464.38-1.9688 2.5469-0.4375v-12.078l-2.5469-0.4375v-1.9844h5.2969l0.21875 2.5156q0.84375-1.3438 2.1094-2.0781 1.2812-0.75 2.9062-0.75 2.7344 0 4.2344 1.6094 1.5 1.5938 1.5 4.9375v8.2656l2.5469 0.4375v1.9688h-8.1719v-1.9688l2.5469-0.4375v-8.2031q0-2.2344-0.89063-3.1719-0.875-0.9375-2.6875-0.9375-1.3281 0-2.3594 0.64062-1.0156 0.64062-1.625 1.75v9.9219l2.5469 0.4375v1.9688h-8.1719z" style="font-variant-ligatures:none"/>
  <path transform="matrix(.75 0 0 .75 120.44 536.34)" d="m493.05 0.32812q-3.5312 0-5.625-2.3438-2.0781-2.3594-2.0781-6.1094v-0.6875q0-3.6094 2.1406-6 2.1562-2.4062 5.0938-2.4062 3.4062 0 5.1562 2.0625 1.7656 2.0625 1.7656 5.5v1.9219h-10.969l-0.0469 0.078125q0.0469 2.4375 1.2344 4.0156 1.1875 1.5625 3.3281 1.5625 1.5625 0 2.7344-0.4375 1.1875-0.45312 2.0469-1.2344l1.2031 2q-0.90625 0.875-2.4062 1.4844-1.4844 0.59375-3.5781 0.59375zm-0.46875-15.125q-1.5469 0-2.6406 1.3125-1.0938 1.2969-1.3438 3.2656l0.0312 0.07813h7.7969v-0.40625q0-1.8125-0.96875-3.0312t-2.875-1.2188z" style="font-variant-ligatures:none"/>
  <path transform="matrix(.75 0 0 .75 124.19 536.34)" d="m502.52-14.922v-1.9844h5.2969l0.29687 2.4531q0.71875-1.2969 1.7656-2.0312 1.0625-0.73438 2.4219-0.73438 0.35938 0 0.73438 0.0625 0.39062 0.04687 0.59375 0.10938l-0.40625 2.8594-1.75-0.09375q-1.2188 0-2.0469 0.57812-0.82812 0.5625-1.2812 1.5938v9.7031l2.5469 0.4375v1.9688h-8.1719v-1.9688l2.5469-0.4375v-12.078z" style="font-variant-ligatures:none"/>
  <path transform="matrix(.75 0 0 .75 127.94 536.34)" d="m526.8 0q-0.14062-0.6875-0.21875-1.2344-0.0781-0.54688-0.10937-1.0938-0.89063 1.1406-2.2344 1.9062-1.3281 0.75-2.8438 0.75-2.6406 0-4.0156-1.2812-1.375-1.2969-1.375-3.6406 0-2.4062 1.9375-3.7031 1.9531-1.3125 5.3438-1.3125h3.1719v-1.9688q0-1.4844-0.9375-2.3438-0.9375-0.875-2.6094-0.875-1.1562 0-2.0469 0.29688-0.875 0.29688-1.4219 0.8125l-0.32813 1.7812h-2.375v-3.2812q1.1562-0.92188 2.7969-1.4688 1.6406-0.5625 3.5625-0.5625 2.875 0 4.6562 1.4688t1.7812 4.2031v8.1406q0 0.32812 0 0.64062 0.0156 0.3125 0.0469 0.625l1.25 0.17188v1.9688zm-4.9531-2.25q1.5312 0 2.7969-0.73438 1.2656-0.73438 1.8125-1.7656v-2.7812h-3.2812q-1.8906 0-3 0.875-1.0938 0.875-1.0938 2.125 0 1.1094 0.6875 1.7031 0.6875 0.57812 2.0781 0.57812z" style="font-variant-ligatures:none"/>
  <path transform="matrix(.75 0 0 .75 131.69 536.34)" d="m538.77-20.984v4.0781h3.2031v2.2812h-3.2031v10.266q0 1.1875 0.48438 1.6719 0.5 0.48438 1.3125 0.48438 0.40625 0 0.90625-0.0625 0.51562-0.078125 0.85937-0.15625l0.42188 2.1094q-0.4375 0.28125-1.2812 0.45312-0.84375 0.1875-1.6875 0.1875-1.875 0-2.9844-1.125-1.1094-1.1406-1.1094-3.5625v-10.266h-2.6719v-2.2812h2.6719v-4.0781z" style="font-variant-ligatures:none"/>
  <path transform="matrix(.75 0 0 .75 135.44 536.34)" d="m552.86 0.32812q-3.5312 0-5.625-2.3438-2.0781-2.3594-2.0781-6.1094v-0.6875q0-3.6094 2.1406-6 2.1562-2.4062 5.0938-2.4062 3.4062 0 5.1562 2.0625 1.7656 2.0625 1.7656 5.5v1.9219h-10.969l-0.0469 0.078125q0.0469 2.4375 1.2344 4.0156 1.1875 1.5625 3.3281 1.5625 1.5625 0 2.7344-0.4375 1.1875-0.45312 2.0469-1.2344l1.2031 2q-0.90625 0.875-2.4062 1.4844-1.4844 0.59375-3.5781 0.59375zm-0.46875-15.125q-1.5469 0-2.6406 1.3125-1.0938 1.2969-1.3438 3.2656l0.0312 0.07813h7.7969v-0.40625q0-1.8125-0.96875-3.0312t-2.875-1.2188z" style="font-variant-ligatures:none"/>
  <path transform="matrix(.75 0 0 .75 139.19 536.34)" d="m573.72-2.0156q-0.82813 1.1562-2.0312 1.75-1.1875 0.59375-2.7656 0.59375-3.0938 0-4.8438-2.2344-1.7344-2.25-1.7344-5.9062v-0.32812q0-4.0781 1.7344-6.5781 1.75-2.5 4.875-2.5 1.5 0 2.6406 0.5625 1.1562 0.54688 1.9688 1.5938v-6.8906l-2.5469-0.4375v-1.9844h5.625v21.969l2.5469 0.4375v1.9688h-5.2188zm-8.2969-5.7969q0 2.5469 1.0469 4.0938 1.0469 1.5469 3.2344 1.5469 1.375 0 2.3125-0.625t1.5469-1.7656v-7.8438q-0.59375-1.0625-1.5469-1.6875-0.95312-0.625-2.2812-0.625-2.2031 0-3.2656 1.8281-1.0469 1.8281-1.0469 4.75z" style="font-variant-ligatures:none"/>
  <path transform="matrix(.75 0 0 .75 142.94 536.34)" d="m585.05-1.125q0 1.5312-0.76562 3.2031-0.76563 1.6719-2.0625 2.7812l-1.7344-1.1562q0.73438-1.125 1.1094-2.2969t0.375-2.4844v-2.375h3.0781z" style="font-variant-ligatures:none"/>
  <path transform="matrix(.75 0 0 .75 146.69 536.34)" d="m595.31-1.9688 2.5469-0.4375v-12.078l-2.5469-0.4375v-1.9844h5.2969l0.21875 2.5156q0.84375-1.3438 2.1094-2.0781 1.2812-0.75 2.9062-0.75 2.7344 0 4.2344 1.6094 1.5 1.5938 1.5 4.9375v8.2656l2.5469 0.4375v1.9688h-8.1719v-1.9688l2.5469-0.4375v-8.2031q0-2.2344-0.89063-3.1719-0.875-0.9375-2.6875-0.9375-1.3281 0-2.3594 0.64062-1.0156 0.64062-1.625 1.75v9.9219l2.5469 0.4375v1.9688h-8.1719z" style="font-variant-ligatures:none"/>
  <path transform="matrix(.75 0 0 .75 150.44 536.34)" d="m616.28-8.6094q0-3.75 2.0312-6.1719 2.0312-2.4375 5.5156-2.4375 3.5 0 5.5312 2.4219 2.0469 2.4219 2.0469 6.1875v0.34375q0 3.7812-2.0312 6.1875t-5.5156 2.4062q-3.5156 0-5.5469-2.4062-2.0312-2.4219-2.0312-6.1875zm3.0781 0.34375q0 2.6875 1.125 4.4375 1.1406 1.75 3.375 1.75 2.1875 0 3.3281-1.75 1.1406-1.75 1.1406-4.4375v-0.34375q0-2.6562-1.1406-4.4219-1.1406-1.7656-3.3594-1.7656t-3.3438 1.7656-1.125 4.4219z" style="font-variant-ligatures:none"/>
  <path transform="matrix(.75 0 0 .75 154.19 536.34)" d="m639.58-20.984v4.0781h3.2031v2.2812h-3.2031v10.266q0 1.1875 0.48438 1.6719 0.5 0.48438 1.3125 0.48438 0.40625 0 0.90625-0.0625 0.51562-0.078125 0.85937-0.15625l0.42188 2.1094q-0.4375 0.28125-1.2812 0.45312-0.84375 0.1875-1.6875 0.1875-1.875 0-2.9844-1.125-1.1094-1.1406-1.1094-3.5625v-10.266h-2.6719v-2.2812h2.6719v-4.0781z" style="font-variant-ligatures:none"/>
  <path transform="matrix(.75 0 0 .75 157.94 536.34)" d="m661.48-2.0781q1.5312 0 2.6875-0.9375 1.1719-0.95312 1.1719-2.3281h2.7656l0.0312 0.09375q0.0781 2.1875-1.9531 3.8906-2.0156 1.6875-4.7031 1.6875-3.6875 0-5.6406-2.4062-1.9375-2.4062-1.9375-6.0469v-0.65625q0-3.6094 1.9531-6.0156 1.9531-2.4219 5.625-2.4219 2.0312 0 3.6406 0.67188 1.625 0.67188 2.6875 1.8438l0.14062 3.75h-2.4531l-0.67188-2.6562q-0.54687-0.53125-1.4062-0.85938-0.85937-0.32812-1.9375-0.32812-2.4219 0-3.4688 1.75-1.0312 1.7344-1.0312 4.2656v0.65625q0 2.5938 1.0312 4.3281 1.0312 1.7188 3.4688 1.7188z" style="font-variant-ligatures:none"/>
  <path transform="matrix(.75 0 0 .75 161.69 536.34)" d="m671.14-14.922v-1.9844h5.2969l0.29687 2.4531q0.71875-1.2969 1.7656-2.0312 1.0625-0.73438 2.4219-0.73438 0.35938 0 0.73438 0.0625 0.39062 0.04687 0.59375 0.10938l-0.40625 2.8594-1.75-0.09375q-1.2188 0-2.0469 0.57812-0.82812 0.5625-1.2812 1.5938v9.7031l2.5469 0.4375v1.9688h-8.1719v-1.9688l2.5469-0.4375v-12.078z" style="font-variant-ligatures:none"/>
  <path transform="matrix(.75 0 0 .75 165.44 536.34)" d="m691.8 0.32812q-3.5312 0-5.625-2.3438-2.0781-2.3594-2.0781-6.1094v-0.6875q0-3.6094 2.1406-6 2.1562-2.4062 5.0938-2.4062 3.4062 0 5.1562 2.0625 1.7656 2.0625 1.7656 5.5v1.9219h-10.969l-0.0469 0.078125q0.0469 2.4375 1.2344 4.0156 1.1875 1.5625 3.3281 1.5625 1.5625 0 2.7344-0.4375 1.1875-0.45312 2.0469-1.2344l1.2031 2q-0.90625 0.875-2.4062 1.4844-1.4844 0.59375-3.5781 0.59375zm-0.46875-15.125q-1.5469 0-2.6406 1.3125-1.0938 1.2969-1.3438 3.2656l0.0312 0.07813h7.7969v-0.40625q0-1.8125-0.96875-3.0312t-2.875-1.2188z" style="font-variant-ligatures:none"/>
  <path transform="matrix(.75 0 0 .75 169.19 536.34)" d="m712.3 0q-0.14062-0.6875-0.21875-1.2344-0.0781-0.54688-0.10937-1.0938-0.89063 1.1406-2.2344 1.9062-1.3281 0.75-2.8438 0.75-2.6406 0-4.0156-1.2812-1.375-1.2969-1.375-3.6406 0-2.4062 1.9375-3.7031 1.9531-1.3125 5.3438-1.3125h3.1719v-1.9688q0-1.4844-0.9375-2.3438-0.9375-0.875-2.6094-0.875-1.1562 0-2.0469 0.29688-0.875 0.29688-1.4219 0.8125l-0.32813 1.7812h-2.375v-3.2812q1.1562-0.92188 2.7969-1.4688 1.6406-0.5625 3.5625-0.5625 2.875 0 4.6562 1.4688t1.7812 4.2031v8.1406q0 0.32812 0 0.64062 0.0156 0.3125 0.0469 0.625l1.25 0.17188v1.9688zm-4.9531-2.25q1.5312 0 2.7969-0.73438 1.2656-0.73438 1.8125-1.7656v-2.7812h-3.2812q-1.8906 0-3 0.875-1.0938 0.875-1.0938 2.125 0 1.1094 0.6875 1.7031 0.6875 0.57812 2.0781 0.57812z" style="font-variant-ligatures:none"/>
  <path transform="matrix(.75 0 0 .75 172.94 536.34)" d="m724.27-20.984v4.0781h3.2031v2.2812h-3.2031v10.266q0 1.1875 0.48438 1.6719 0.5 0.48438 1.3125 0.48438 0.40625 0 0.90625-0.0625 0.51562-0.078125 0.85937-0.15625l0.42188 2.1094q-0.4375 0.28125-1.2812 0.45312-0.84375 0.1875-1.6875 0.1875-1.875 0-2.9844-1.125-1.1094-1.1406-1.1094-3.5625v-10.266h-2.6719v-2.2812h2.6719v-4.0781z" style="font-variant-ligatures:none"/>
  <path transform="matrix(.75 0 0 .75 176.69 536.34)" d="m738.36 0.32812q-3.5312 0-5.625-2.3438-2.0781-2.3594-2.0781-6.1094v-0.6875q0-3.6094 2.1406-6 2.1562-2.4062 5.0938-2.4062 3.4062 0 5.1562 2.0625 1.7656 2.0625 1.7656 5.5v1.9219h-10.969l-0.0469 0.078125q0.0469 2.4375 1.2344 4.0156 1.1875 1.5625 3.3281 1.5625 1.5625 0 2.7344-0.4375 1.1875-0.45312 2.0469-1.2344l1.2031 2q-0.90625 0.875-2.4062 1.4844-1.4844 0.59375-3.5781 0.59375zm-0.46875-15.125q-1.5469 0-2.6406 1.3125-1.0938 1.2969-1.3438 3.2656l0.0312 0.07813h7.7969v-0.40625q0-1.8125-0.96875-3.0312t-2.875-1.2188z" style="font-variant-ligatures:none"/>
  <path transform="matrix(.75 0 0 .75 180.44 536.34)" d="m759.22-2.0156q-0.82813 1.1562-2.0312 1.75-1.1875 0.59375-2.7656 0.59375-3.0938 0-4.8438-2.2344-1.7344-2.25-1.7344-5.9062v-0.32812q0-4.0781 1.7344-6.5781 1.75-2.5 4.875-2.5 1.5 0 2.6406 0.5625 1.1562 0.54688 1.9688 1.5938v-6.8906l-2.5469-0.4375v-1.9844h5.625v21.969l2.5469 0.4375v1.9688h-5.2188zm-8.2969-5.7969q0 2.5469 1.0469 4.0938 1.0469 1.5469 3.2344 1.5469 1.375 0 2.3125-0.625t1.5469-1.7656v-7.8438q-0.59375-1.0625-1.5469-1.6875-0.95312-0.625-2.2812-0.625-2.2031 0-3.2656 1.8281-1.0469 1.8281-1.0469 4.75z" style="font-variant-ligatures:none"/>
 </g>
 <g id="d" transform="translate(-12 -184)" stroke-miterlimit="2" stroke-width="0" style="font-variant-ligatures:normal">
  <path transform="matrix(.98 0 0 .98 411.63 443.93)" d="m-143.08 0h23.256c6.48 0 13.536-5.184 15.912-11.664l14.112-38.736h-15.552l-14.112 38.736h-15.48l2.808-7.704h-15.48l-2.808 7.704c-2.376 6.48 0.936 11.664 7.344 11.664z" fill="#6d10cd" stroke="#6d10cd" style="font-variant-ligatures:normal"/>
  <path transform="matrix(.98 0 0 .98 416.53 443.93)" d="m-99.12-7.776-4.176 11.664h15.48l4.248-11.664z" fill="#6b14cd" stroke="#6b14cd" style="font-variant-ligatures:normal"/>
  <path transform="matrix(.98 0 0 .98 421.43 443.93)" d="m-66.103-38.736-14.112 38.736h15.48l12.672-34.92-6.336-3.816h34.92l-5.616 15.48h-19.44c-2.016 5.616 2.16 11.592 8.136 11.592h7.056l-4.248 11.664h15.48l14.112-38.736c2.376-6.48-0.936-11.664-7.344-11.664h-34.92c-6.408 0-13.536 5.184-15.84 11.664z" fill="#6918ce" stroke="#6918ce" style="font-variant-ligatures:normal"/>
  <path transform="matrix(.98 0 0 .98 426.33 443.93)" d="m-13.198-7.776-4.176 11.664h15.48l4.248-11.664z" fill="#671dce" stroke="#671dce" style="font-variant-ligatures:normal"/>
  <path transform="matrix(.98 0 0 .98 431.23 443.93)" d="m24.283-50.4-18.288 50.4h15.48l4.248-11.664-6.336-3.816h19.368l9.864 15.48h15.48l-9.864-15.48h3.888c6.408 0 13.536-5.256 15.912-11.664l4.176-11.592c2.376-6.48-0.936-11.664-7.344-11.664zm34.2 23.256h-27.144l2.808-7.776-6.336-3.816h34.92z" fill="#6421ce" stroke="#6421ce" style="font-variant-ligatures:normal"/>
  <path transform="matrix(.98 0 0 .98 436.13 443.93)" d="m71.739-7.776-4.176 11.664h15.48l4.248-11.664z" fill="#6225ce" stroke="#6225ce" style="font-variant-ligatures:normal"/>
  <path transform="matrix(.98 0 0 .98 441.03 443.93)" d="m109.22-50.4-18.288 50.4h46.512c6.408 0 13.536-5.184 15.84-11.664l1.44-3.816c2.304-6.48-1.008-11.664-7.416-11.664 6.408 0 13.536-5.184 15.84-11.592 2.376-6.48-0.936-11.664-7.344-11.664zm9.864 15.48-6.336-3.816h34.92l-2.808 7.704h-27.144zm-7.056 19.44-6.336-3.888h34.92l-2.808 7.704h-27.144z" fill="#6029cf" stroke="#6029cf" style="font-variant-ligatures:normal"/>
  <path transform="matrix(.98 0 0 .98 445.93 443.93)" d="m157.1-7.776-4.176 11.664h15.48l4.248-11.664z" fill="#5e2dcf" stroke="#5e2dcf" style="font-variant-ligatures:normal"/>
  <path transform="matrix(.98 0 0 .98 450.83 443.93)" d="m194.58-50.4-18.288 50.4h15.48l18.36-50.4z" fill="#5c31cf" stroke="#5c31cf" style="font-variant-ligatures:normal"/>
  <path transform="matrix(.98 0 0 .98 455.73 443.93)" d="m201.11-7.776-4.176 11.664h15.48l4.248-11.664z" fill="#5a36cf" stroke="#5a36cf" style="font-variant-ligatures:normal"/>
  <path transform="matrix(.98 0 0 .98 460.63 443.93)" d="m224.84-15.48-1.368 3.816c-2.376 6.48 0.936 11.664 7.344 11.664h34.92c6.408 0 13.536-5.184 15.84-11.664l2.808-7.704c2.376-6.408-0.936-11.664-7.344-11.664h-31.032l1.368-3.888-6.336-3.816h34.92l-1.44 3.816h15.552l1.368-3.816c2.376-6.48-0.936-11.664-7.344-11.664h-34.92c-6.408 0-13.536 5.184-15.84 11.664l-2.88 7.704c-2.304 6.408 1.008 11.664 7.416 11.664h31.032l-2.808 7.704h-27.144l1.368-3.816z" fill="#573ad0" stroke="#573ad0" style="font-variant-ligatures:normal"/>
  <path transform="matrix(.98 0 0 .98 465.53 443.93)" d="m285.49-7.776-4.176 11.664h15.48l4.248-11.664z" fill="#553ed0" stroke="#553ed0" style="font-variant-ligatures:normal"/>
  <path transform="matrix(.98 0 0 .98 -241.76 498.26)" d="m322.97-50.4-18.288 50.4h15.48l5.616-15.48-6.336-3.888h34.92l-7.056 19.368h15.48l18.36-50.4h-15.48l-7.056 19.368h-27.144l7.056-19.368z" fill="#5342d0" stroke="#5342d0" style="font-variant-ligatures:normal"/>
  <path transform="matrix(.98 0 0 .98 -236.86 498.26)" d="m382.99 0h38.808l4.248-11.664h-34.92l1.368-3.816-6.336-3.888h34.92l4.248-11.664h-27.144l1.44-3.888-6.408-3.816h42.696l4.248-11.664h-38.808c-6.408 0-13.536 5.184-15.84 11.664l-9.864 27.072c-2.376 6.48 0.93599 11.664 7.344 11.664z" fill="#5146d0" stroke="#5146d0" style="font-variant-ligatures:normal"/>
  <path transform="matrix(.98 0 0 .98 -231.96 498.26)" d="m447.42-50.4-18.288 50.4h15.48l4.248-11.664-6.336-3.816h19.368l9.864 15.48h15.48l-9.864-15.48h3.888c6.408 0 13.536-5.256 15.912-11.664l4.176-11.592c2.376-6.48-0.93599-11.664-7.344-11.664zm34.2 23.256h-27.144l2.808-7.776-6.336-3.816h34.92z" fill="#4f4ad1" stroke="#4f4ad1" style="font-variant-ligatures:normal"/>
  <path transform="matrix(.98 0 0 .98 -227.06 498.26)" d="m505.75 0h34.92c6.408 0 13.536-5.184 15.84-11.664l9.864-27.072c2.376-6.48-0.936-11.664-7.344-11.664h-34.92c-6.408 0-13.536 5.184-15.84 11.664l-9.936 27.072c-2.304 6.48 1.008 11.664 7.416 11.664zm35.28-11.664h-27.144l8.424-23.256-6.336-3.816h34.92z" fill="#4d4fd1" stroke="#4d4fd1" style="font-variant-ligatures:normal"/>
  <path transform="matrix(.98 0 0 .98 -222.16 498.26)" d="m609.53 0h34.92c6.408 0 13.536-5.184 15.84-11.664l7.056-19.368h-27.144l-4.248 11.664h11.664l-2.808 7.704h-27.144l8.424-23.256-6.336-3.816h50.4l4.248-11.664h-46.512c-6.408 0-13.536 5.184-15.84 11.664l-9.864 27.072c-2.376 6.48 0.936 11.664 7.344 11.664z" fill="#4a53d1" stroke="#4a53d1" style="font-variant-ligatures:normal"/>
  <path transform="matrix(.98 0 0 .98 -217.26 498.26)" d="m675.77 0h38.808l4.248-11.664h-34.92l1.368-3.816-6.336-3.888h34.92l4.248-11.664h-27.144l1.44-3.888-6.408-3.816h42.696l4.248-11.664h-38.808c-6.408 0-13.536 5.184-15.84 11.664l-9.864 27.072c-2.376 6.48 0.936 11.664 7.344 11.664z" fill="#4857d1" stroke="#4857d1" style="font-variant-ligatures:normal"/>
  <path transform="matrix(.98 0 0 .98 -212.36 498.26)" d="m740.21-50.4-18.288 50.4h15.48l11.664-32.04 15.48 32.04h15.48l18.36-50.4h-15.48l-11.664 32.04-15.48-32.04z" fill="#465bd2" stroke="#465bd2" style="font-variant-ligatures:normal"/>
  <path transform="matrix(.98 0 0 .98 -207.46 498.26)" d="m800.22 0h38.808l4.248-11.664h-34.92l1.368-3.816-6.336-3.888h34.92l4.248-11.664h-27.144l1.44-3.888-6.408-3.816h42.696l4.248-11.664h-38.808c-6.408 0-13.536 5.184-15.84 11.664l-9.864 27.072c-2.376 6.48 0.936 11.664 7.344 11.664z" fill="#445fd2" stroke="#445fd2" style="font-variant-ligatures:normal"/>
  <path transform="matrix(.98 0 0 .98 -202.56 498.26)" d="m864.66-50.4-18.288 50.4h15.48l4.248-11.664-6.336-3.816h19.368l9.864 15.48h15.48l-9.864-15.48h3.888c6.408 0 13.536-5.256 15.912-11.664l4.176-11.592c2.376-6.48-0.936-11.664-7.344-11.664zm34.2 23.256h-27.144l2.808-7.776-6.336-3.816h34.92z" fill="#4263d2" stroke="#4263d2" style="font-variant-ligatures:normal"/>
  <path transform="matrix(.98 0 0 .98 -197.66 498.26)" d="m925.87-38.736-14.112 38.736h15.48l12.672-34.92-6.336-3.816h34.92l-5.616 15.48h-19.44c-2.016 5.616 2.16 11.592 8.136 11.592h7.056l-4.248 11.664h15.48l14.112-38.736c2.376-6.48-0.936-11.664-7.344-11.664h-34.92c-6.408 0-13.536 5.184-15.84 11.664z" fill="#4068d2" stroke="#4068d2" style="font-variant-ligatures:normal"/>
  <path transform="matrix(.98 0 0 .98 -192.76 498.26)" d="m1008.4-38.736-14.112 38.736h15.552l12.672-34.92-6.336-3.816h27.144l4.248-11.664h-54.288l-4.248 11.664z" fill="#3d6cd3" stroke="#3d6cd3" style="font-variant-ligatures:normal"/>
  <path transform="matrix(.98 0 0 .98 -187.86 498.26)" d="m1045.5 0h34.92c6.408 0 13.536-5.184 15.84-11.664l9.864-27.072c2.376-6.48-0.936-11.664-7.344-11.664h-34.92c-6.408 0-13.536 5.184-15.84 11.664l-9.936 27.072c-2.304 6.48 1.008 11.664 7.416 11.664zm35.28-11.664h-27.144l8.424-23.256-6.336-3.816h34.92z" fill="#3b70d3" stroke="#3b70d3" style="font-variant-ligatures:normal"/>
  <path transform="matrix(.98 0 0 .98 -182.96 498.26)" d="m1118.9-50.4-18.288 50.4h15.48l4.248-11.664-6.336-3.816h19.368l9.864 15.48h15.48l-9.864-15.48h3.888c6.408 0 13.536-5.256 15.912-11.664l4.176-11.592c2.376-6.48-0.936-11.664-7.344-11.664zm34.2 23.256h-27.144l2.808-7.776-6.336-3.816h34.92z" fill="#3974d3" stroke="#3974d3" style="font-variant-ligatures:normal"/>
 </g>
</svg>
